# xmcd CD database file
#
# Track frame offsets:
#	225
#	14125
#	24929
#	39729
#	57521
#	68928
#	81792
#	94594
#	108590
#	125858
#	141211
#	153751
#	167153
#	181381
#	198782
#	213040
#
# Disc length: 3076 seconds
#
# Revision: 0
# Processed by: cddbd v1.5.2PL0 Copyright (c) Steve Scherf et al.
# Submitted via: CDex 1.51
#
DISCID=de0c0110
DTITLE=Jens Böttcher - Reisefieber (Südseite)
DYEAR=2007
DGENRE=Country
TTITLE0=Am Abend
TTITLE1=Jesus, ich bin da
TTITLE2=Sonnenstrahlen
TTITLE3=Aus Gnade, Herr
TTITLE4=Gottesgeschenk
TTITLE5=Manchmal
TTITLE6=Übers Meer
TTITLE7=Psalm 23
TTITLE8=So Tief
TTITLE9=Hiob
TTITLE10=Bergwerk der toten Seelen
TTITLE11=In deinen Armen
TTITLE12=No Sé
TTITLE13=Der Reisende
TTITLE14=Ozean
TTITLE15=Am anderen Ende
EXTD=YEAR: 2007
EXTT0=
EXTT1=
EXTT2=
EXTT3=
EXTT4=
EXTT5=
EXTT6=
EXTT7=
EXTT8=
EXTT9=
EXTT10=
EXTT11=
EXTT12=
EXTT13=
EXTT14=
EXTT15=
PLAYORDER=
